<?xml version="1.0" encoding="utf-8"?>
<!-- Generator: Adobe Illustrator 25.2.0, SVG Export Plug-In . SVG Version: 6.00 Build 0)  -->
<svg version="1.1" id="Layer_1" xmlns="http://www.w3.org/2000/svg" xmlns:xlink="http://www.w3.org/1999/xlink" x="0px" y="0px"
	 viewBox="0 0 177.12 23.28" style="enable-background:new 0 0 177.12 23.28;" xml:space="preserve">
<style type="text/css">
	.st0{fill:#030404;}
	.st1{fill:#909091;}
</style>
<text transform="matrix(1 0 0 1 27.6487 -59.038)" class="st1" style="font-family:'MyriadPro-Bold'; font-size:25px;">KYOCHON</text>
<g>
	<path class="st0" d="M2.67,20.27V3.46h4.7v7.73l5.28-7.73h4.75l-5.5,7.93l5.85,8.87H12.5l-5.13-7.73v7.73H2.67z"/>
	<path class="st0" d="M23.75,20.27v-6.58L18.42,3.46h4.97l3,6.12h0.08l2.95-6.12h4.3l-5.27,10.23v6.58H23.75z"/>
	<path class="st0" d="M43.07,20.54c-2.4,0-4.34-0.69-5.82-2.08c-1.48-1.38-2.23-3.48-2.23-6.27v-0.55c0-1.45,0.22-2.73,0.66-3.84
		c0.44-1.11,1.05-1.99,1.82-2.65C38.29,4.49,39.15,4,40.1,3.68c0.95-0.32,1.98-0.49,3.1-0.49c2.38,0,4.32,0.69,5.81,2.08
		c1.49,1.38,2.24,3.47,2.24,6.27v0.55c0,1.45-0.22,2.73-0.66,3.84c-0.44,1.11-1.05,1.99-1.83,2.65c-0.77,0.66-1.64,1.15-2.59,1.47
		C45.22,20.38,44.19,20.54,43.07,20.54z M43.17,17.11c2.08,0,3.12-1.57,3.12-4.72v-0.85c0-1.73-0.25-2.99-0.76-3.76
		C45.03,7,44.21,6.61,43.1,6.61c-2.1,0-3.15,1.57-3.15,4.7v0.85c0,1.77,0.26,3.03,0.79,3.8C41.26,16.73,42.07,17.11,43.17,17.11z"/>
	<path class="st0" d="M61.2,20.54c-2.6,0-4.6-0.69-6.01-2.08c-1.41-1.38-2.11-3.48-2.11-6.27v-0.58c0-1.48,0.21-2.78,0.64-3.89
		c0.43-1.11,1.02-1.99,1.79-2.64s1.64-1.13,2.61-1.44c0.97-0.31,2.06-0.46,3.26-0.46c1.95,0,3.41,0.24,4.37,0.73v3.42
		c-1.07-0.4-2.21-0.6-3.42-0.6c-2.82,0-4.23,1.52-4.23,4.55v0.75c0,1.67,0.32,2.91,0.96,3.73c0.64,0.82,1.71,1.22,3.21,1.22
		c1.3,0,2.52-0.23,3.65-0.7v3.35C64.61,20.24,63.03,20.54,61.2,20.54z"/>
	<path class="st0" d="M68.35,20.27V3.46h4.7v6.48h5.28V3.46h4.72v16.8h-4.72v-6.95h-5.28v6.95H68.35z"/>
	<path class="st0" d="M93.6,20.54c-2.4,0-4.34-0.69-5.82-2.08c-1.48-1.38-2.23-3.48-2.23-6.27v-0.55c0-1.45,0.22-2.73,0.66-3.84
		c0.44-1.11,1.05-1.99,1.82-2.65c0.78-0.66,1.64-1.15,2.59-1.48c0.95-0.32,1.98-0.49,3.1-0.49c2.38,0,4.32,0.69,5.81,2.08
		c1.49,1.38,2.24,3.47,2.24,6.27v0.55c0,1.45-0.22,2.73-0.66,3.84c-0.44,1.11-1.05,1.99-1.83,2.65c-0.77,0.66-1.64,1.15-2.59,1.47
		C95.75,20.38,94.71,20.54,93.6,20.54z M93.7,17.11c2.08,0,3.12-1.57,3.12-4.72v-0.85c0-1.73-0.25-2.99-0.76-3.76
		C95.55,7,94.74,6.61,93.62,6.61c-2.1,0-3.15,1.57-3.15,4.7v0.85c0,1.77,0.26,3.03,0.79,3.8C91.78,16.73,92.6,17.11,93.7,17.11z"/>
	<path class="st0" d="M104.3,20.27V3.46h5.08l5.42,9.4h0.08v-9.4h4v16.8h-4.47l-6-10.48h-0.1v10.48H104.3z"/>
	<path class="st0" d="M129.95,20.42v-13l-2.6,0.35v-2.7l4.95-2.1h2.35v17.45H129.95z"/>
	<path class="st0" d="M143.17,2.67c2.33,0,4.14,0.69,5.41,2.06c1.27,1.38,1.91,3.3,1.91,5.76v1.23c0,1.48-0.16,2.77-0.47,3.88
		c-0.32,1.1-0.73,1.97-1.23,2.6c-0.5,0.63-1.13,1.14-1.9,1.51c-0.77,0.38-1.52,0.62-2.25,0.74c-0.73,0.12-1.58,0.17-2.53,0.17
		c-1.53,0-2.97-0.38-4.3-1.15l0.5-3.32c0.37,0.18,0.93,0.38,1.69,0.57c0.76,0.2,1.38,0.3,1.86,0.3c0.55,0,0.96-0.01,1.24-0.03
		c0.28-0.02,0.62-0.09,1.05-0.22c0.43-0.13,0.74-0.33,0.94-0.58c0.2-0.25,0.39-0.63,0.56-1.14c0.18-0.51,0.27-1.13,0.29-1.86
		c-1.22,0.68-2.49,1.02-3.83,1.02c-1.57,0-2.8-0.47-3.71-1.41c-0.91-0.94-1.36-2.25-1.36-3.94c0-1.93,0.5-3.45,1.5-4.55
		S141.09,2.67,143.17,2.67z M143.35,5.84c-1.32,0-1.97,0.89-1.97,2.68c0,0.88,0.21,1.55,0.62,2c0.42,0.45,0.97,0.67,1.67,0.67
		c0.4,0,0.83-0.1,1.28-0.3c0.45-0.2,0.77-0.43,0.97-0.7V9.86C145.92,7.18,145.06,5.84,143.35,5.84z"/>
	<path class="st0" d="M158.4,2.67c2.33,0,4.14,0.69,5.41,2.06c1.27,1.38,1.91,3.3,1.91,5.76v1.23c0,1.48-0.16,2.77-0.47,3.88
		c-0.32,1.1-0.73,1.97-1.23,2.6c-0.5,0.63-1.13,1.14-1.9,1.51c-0.77,0.38-1.52,0.62-2.25,0.74c-0.73,0.12-1.58,0.17-2.53,0.17
		c-1.53,0-2.97-0.38-4.3-1.15l0.5-3.32c0.37,0.18,0.93,0.38,1.69,0.57c0.76,0.2,1.38,0.3,1.86,0.3c0.55,0,0.96-0.01,1.24-0.03
		c0.28-0.02,0.62-0.09,1.05-0.22c0.43-0.13,0.74-0.33,0.94-0.58c0.2-0.25,0.39-0.63,0.56-1.14c0.18-0.51,0.27-1.13,0.29-1.86
		c-1.22,0.68-2.49,1.02-3.83,1.02c-1.57,0-2.8-0.47-3.71-1.41c-0.91-0.94-1.36-2.25-1.36-3.94c0-1.93,0.5-3.45,1.5-4.55
		S156.31,2.67,158.4,2.67z M158.57,5.84c-1.32,0-1.97,0.89-1.97,2.68c0,0.88,0.21,1.55,0.62,2c0.42,0.45,0.97,0.67,1.67,0.67
		c0.4,0,0.83-0.1,1.28-0.3c0.45-0.2,0.77-0.43,0.97-0.7V9.86C161.15,7.18,160.29,5.84,158.57,5.84z"/>
	<path class="st0" d="M169.75,20.42v-13l-2.6,0.35v-2.7l4.95-2.1h2.35v17.45H169.75z"/>
</g>
<g>
	<path class="st1" d="M179.93-44.78h3.77v7.45h0.08c0.38-0.65,0.77-1.25,1.15-1.85l3.82-5.6h4.67l-5.57,7.17l5.87,9.67h-4.45
		l-4.12-7.27l-1.45,1.77v5.5h-3.77V-44.78z"/>
	<path class="st1" d="M198.8-27.94v-6.9l-5.32-9.95h4.35l1.72,4.05c0.52,1.22,0.87,2.12,1.3,3.22h0.05
		c0.38-1.05,0.77-2.02,1.27-3.22l1.7-4.05h4.27l-5.55,9.82v7.02H198.8z"/>
	<path class="st1" d="M224.22-36.53c0,5.52-3.35,8.87-8.27,8.87c-5,0-7.92-3.77-7.92-8.57c0-5.05,3.22-8.82,8.2-8.82
		C221.4-45.06,224.22-41.18,224.22-36.53z M212.05-36.31c0,3.3,1.55,5.62,4.1,5.62c2.57,0,4.05-2.45,4.05-5.72
		c0-3.02-1.45-5.62-4.07-5.62C213.55-42.03,212.05-39.58,212.05-36.31z"/>
	<path class="st1" d="M239.1-28.41c-0.7,0.35-2.27,0.73-4.32,0.73c-5.82,0-8.82-3.62-8.82-8.42c0-5.75,4.1-8.95,9.2-8.95
		c1.97,0,3.47,0.4,4.15,0.75l-0.78,3.02c-0.77-0.33-1.85-0.62-3.2-0.62c-3.02,0-5.37,1.82-5.37,5.57c0,3.37,2,5.5,5.4,5.5
		c1.15,0,2.42-0.25,3.17-0.55L239.1-28.41z"/>
	<path class="st1" d="M245.43-44.78v6.47h6.27v-6.47h3.8v16.85h-3.8v-7.05h-6.27v7.05h-3.82v-16.85H245.43z"/>
	<path class="st1" d="M274.25-36.53c0,5.52-3.35,8.87-8.27,8.87c-5,0-7.92-3.77-7.92-8.57c0-5.05,3.22-8.82,8.2-8.82
		C271.42-45.06,274.25-41.18,274.25-36.53z M262.08-36.31c0,3.3,1.55,5.62,4.1,5.62c2.57,0,4.05-2.45,4.05-5.72
		c0-3.02-1.45-5.62-4.07-5.62C263.58-42.03,262.08-39.58,262.08-36.31z"/>
	<path class="st1" d="M276.75-27.94v-16.85h4.45l3.5,6.17c1,1.77,2,3.87,2.75,5.77h0.08c-0.25-2.22-0.33-4.5-0.33-7.02v-4.92h3.5
		v16.85h-4l-3.6-6.5c-1-1.8-2.1-3.97-2.92-5.95l-0.08,0.02c0.1,2.22,0.15,4.6,0.15,7.35v5.07H276.75z"/>
</g>
</svg>
